# xmcd
#
# Track frame offsets: 
#        150
#        11597
#        24499
#        36997
#        50168
#        61504
#        74647
#        85050
#        97076
#        107074
#        124242
#        135670
#        147378
#        157943
#        169620
#        177572
#
# Disc length: 2508 seconds
#
# Revision: 0
# Processed by: cddbd v1.5.2PL0 Copyright (c) Steve Scherf et al.
# Submitted via: ExactAudioCopy v1.0b1
#
DISCID=e009ca10
DTITLE=Jimmy Radcliffe - Where There's Smoke, There's Fire
DYEAR=2007
DGENRE=R&B
TTITLE0=Long After Tonight Is All Over (alt)
TTITLE1=My Ship Is Comin' In (alt)
TTITLE2=What I Want I Can Never Have (alt)
TTITLE3=(There Goes) The Forgotten Man (alt)
TTITLE4=Could Anybody Else
TTITLE5=Where There's Smoke, There's Fire
TTITLE6=Deep In The Heart Of Harlem
TTITLE7=This Diamond Ring
TTITLE8=Satisfaction
TTITLE9=The Complete Man
TTITLE10=I'm Your Special Fool
TTITLE11=Sunshine, Hope And Love
TTITLE12=The Greater The Love, The Deeper The Hurt
TTITLE13=Sweet Taste Of Lovin'
TTITLE14=I Pretend I'm Loving You
TTITLE15=Stand Up
EXTD=
EXTT0=
EXTT1=
EXTT2=
EXTT3=
EXTT4=
EXTT5=
EXTT6=
EXTT7=
EXTT8=
EXTT9=
EXTT10=
EXTT11=
EXTT12=
EXTT13=
EXTT14=
EXTT15=
PLAYORDER=
